# xmcd CD database file
#
# Track frame offsets:
#	150
#	15560
#	30823
#	48443
#	66727
#	83718
#	101671
#	116495
#	131256
#	147220
#	159851
#	176127
#	191856
#	210298
#
# Disc length: 3037 seconds
#
# Revision: 0
# Processed by: cddbd v1.5.1PL0 Copyright (c) Steve Scherf et al.
# Submitted via: CDex 1.51
#
DISCID=b50bdb0e
DTITLE=Mariah Carey - The emancipation of Mimi
DYEAR=2005
DGENRE=Rhythmic Soul
TTITLE0=It's Like That
TTITLE1=We Belong Together
TTITLE2=Shake It Off
TTITLE3=Mine Again
TTITLE4=Say Somethin' (Feat. Snoop Dog)
TTITLE5=Stay The Night
TTITLE6=Get Your Number (Feat. Jermain)
TTITLE7=One and Only (Feat. Twista)
TTITLE8=Circles
TTITLE9=Your Girl
TTITLE10=I Wish You Knew
TTITLE11=To The Floor (Feat. Nelly)
TTITLE12=Joy Ride
TTITLE13=Fly Like A Bird
EXTD=YEAR: 2005
EXTT0=
EXTT1=
EXTT2=
EXTT3=
EXTT4=
EXTT5=
EXTT6=
EXTT7=
EXTT8=
EXTT9=
EXTT10=
EXTT11=
EXTT12=
EXTT13=
PLAYORDER=
